<svg width="315" height="180" viewBox="0 0 315 180" fill="none" xmlns="http://www.w3.org/2000/svg">
<g clip-path="url(#clip0_3_3)">
<mask id="mask0_3_3" style="mask-type:luminance" maskUnits="userSpaceOnUse" x="-32" y="-102" width="378" height="378">
<path d="M-32 -102H345.953V275.953H-32V-102Z" fill="white"/>
</mask>
<g mask="url(#mask0_3_3)">
<path d="M27.6231 42.0943C27.4671 39.9396 29.0871 38.0663 31.2431 37.9063C33.4004 37.7516 35.2764 39.3716 35.4324 41.5289C35.5884 43.6849 33.9671 45.5596 31.8111 45.7156C29.6537 45.8716 27.7804 44.2516 27.6231 42.0943Z" fill="white"/>
<path d="M73.5671 42.0943C73.7231 39.9396 72.1004 38.0663 69.9457 37.9063C67.7871 37.7516 65.9151 39.3716 65.7577 41.5289C65.6017 43.6849 67.2231 45.5596 69.3777 45.7156C71.5337 45.8716 73.4097 44.2516 73.5671 42.0943Z" fill="white"/>
<path d="M86.4641 48.2324C86.0041 46.5351 83.6601 46.2778 81.5935 46.8151C79.9628 47.2391 74.2868 48.8151 69.2495 48.4498C65.6295 48.1858 62.0895 45.1738 59.8868 43.1138C62.0748 40.5938 64.8975 37.8871 65.5455 37.1284C66.4801 36.0378 66.6348 34.3244 65.8575 33.5458C65.0788 32.7671 63.6761 33.2378 62.2735 34.1711C60.8748 35.1044 55.5761 40.4378 50.5268 40.4378C45.4761 40.4378 40.0068 35.1044 38.6041 34.1711C37.2028 33.2378 35.1775 33.3924 34.3988 34.1711C33.6188 34.9484 34.4015 36.0378 35.3335 37.1284C35.9975 37.9018 38.9255 40.7084 41.1295 43.2764C38.9175 45.3284 35.4681 48.1938 31.9415 48.4498C26.9028 48.8151 21.2268 47.2391 19.5961 46.8151C17.5308 46.2778 15.1868 46.5351 14.7255 48.2324C14.4375 49.2938 15.3375 50.4618 16.5481 51.2511C17.7521 52.0378 23.9935 53.2498 25.7495 55.9351C27.5028 58.6191 27.7708 79.3818 29.4068 80.0764C30.5988 80.5858 32.6775 80.5858 33.8068 80.0124C35.3921 79.2071 38.0628 56.5564 39.4121 53.6471C40.1588 52.0404 42.0361 49.6378 43.7135 47.6151C45.1561 54.3791 46.7361 79.5831 48.2575 80.1111C49.4095 80.5071 51.7001 80.5071 52.6201 80.1111C54.1201 79.4604 55.7628 53.5938 57.2308 47.3164C58.9655 49.3991 60.9948 51.9604 61.7761 53.6471C63.1268 56.5564 65.7975 79.2071 67.3828 80.0124C68.5121 80.5858 70.5908 80.5858 71.7828 80.0764C73.4161 79.3818 73.6841 58.6191 75.4401 55.9351C77.1975 53.2498 83.4375 52.0378 84.6415 51.2511C85.8508 50.4618 86.7508 49.2938 86.4641 48.2324Z" fill="white"/>
<path d="M46.6804 33.7871C46.6804 31.6231 48.4324 29.8737 50.5964 29.8737C52.7564 29.8737 54.5097 31.6231 54.5097 33.7871C54.5097 35.9497 52.7564 37.7004 50.5964 37.7004C48.4324 37.7004 46.6804 35.9497 46.6804 33.7871Z" fill="white"/>
<path d="M87.2448 34.0624C89.1475 37.0811 85.1635 38.2144 82.1195 37.5197C79.5715 36.9397 54.5781 23.5731 50.8301 23.2304C47.0955 22.8891 24.6115 36.7117 22.1341 38.0397C18.4941 39.9851 15.2781 39.7984 11.9168 38.0571C10.8061 37.4784 2.24346 32.9571 0.375458 31.6957C2.24346 29.9504 28.2381 14.3451 31.2621 12.8277C34.7435 11.0811 36.8181 10.1651 40.6461 11.5944C43.2981 12.5877 86.4568 32.8131 87.2448 34.0624Z" fill="white"/>
<path d="M10.235 53.4485C11.2084 53.5925 15.8044 55.5739 17.6244 56.5112C21.999 58.7645 22.227 61.0045 22.7257 64.6512C23.259 68.5352 23.7164 75.7752 23.7924 78.5165C21.963 77.7312 14.795 71.7325 13.083 70.2539C11.7577 69.1045 10.2737 68.2845 10.2777 66.5045C10.279 65.8232 9.96438 55.1219 10.235 53.4485Z" fill="white"/>
<path d="M215.423 64.3775C217.219 64.3775 218.722 65.7908 218.722 67.6468C218.722 69.5188 217.219 70.9335 215.423 70.9335C213.622 70.9335 212.11 69.5188 212.11 67.6468C212.11 65.7908 213.622 64.3775 215.423 64.3775ZM215.423 70.4375C216.947 70.4375 218.118 69.2361 218.118 67.6468C218.118 66.0815 216.947 64.8721 215.423 64.8721C213.878 64.8721 212.711 66.0815 212.711 67.6468C212.711 69.2361 213.878 70.4375 215.423 70.4375ZM214.707 69.5468H214.159V65.7188H215.617C216.511 65.7188 216.951 66.0815 216.951 66.8081C216.951 67.4961 216.502 67.7868 215.955 67.8575L217.059 69.5468H216.449L215.413 67.8775H214.707V69.5468ZM214.707 67.4175H215.611C216.213 67.4175 216.403 67.2041 216.403 66.7708C216.403 66.3921 216.119 66.1815 215.733 66.1815H214.707V67.4175Z" fill="white"/>
<path d="M104.613 32.1959C104.457 34.1199 104.418 36.3572 104.418 38.7505V43.2652C105.281 43.3065 106.143 43.3439 107.401 43.3439C108.658 43.3439 109.521 43.3065 110.383 43.2652V38.7505C110.383 36.3572 110.345 34.1199 110.187 32.1959H117.607C117.215 36.2399 117.215 39.5359 117.215 46.2119C117.215 52.8839 117.215 56.1812 117.607 60.2252H110.187C110.345 58.3039 110.383 56.0625 110.383 53.6705V47.9385C109.521 47.8985 108.658 47.8599 107.401 47.8599C106.143 47.8599 105.281 47.8985 104.418 47.9385V53.6705C104.418 56.0625 104.457 58.3039 104.613 60.2252H97.194C97.5847 56.1812 97.5847 52.8839 97.5847 46.2119C97.5847 39.5359 97.5847 36.2399 97.194 32.1959H104.613Z" fill="white"/>
<path d="M121.022 40.2825C121.571 40.2039 123.693 39.9705 125.146 39.9705C133.273 39.9705 135.745 43.1479 135.745 48.4092V53.3172C135.745 55.2012 135.745 57.3225 136.766 60.2265H130.523C130.054 59.5972 129.897 59.1665 129.854 59.0092C128.798 59.7945 127.346 60.5385 125.461 60.5385C121.653 60.5385 119.177 57.9092 119.177 54.6132C119.177 50.9999 122.042 48.5652 125.774 47.3492L129.031 46.2865C128.993 44.9145 128.09 43.7385 126.245 43.7385C124.989 43.7385 123.025 44.3265 121.022 45.7772V40.2825ZM129.541 50.0185C127.07 50.6452 125.537 52.1785 125.537 54.1399C125.537 55.5159 126.402 56.5759 127.659 56.5759C128.481 56.5759 129.307 56.0639 129.541 55.7105V50.0185Z" fill="white"/>
<path d="M145.501 32.1959V41.0652C146.479 40.4785 147.895 39.9692 149.309 39.9692C153.037 39.9692 156.53 42.7159 156.53 49.8612C156.53 55.3972 153.507 60.6959 147.934 60.6959C146.442 60.6959 144.715 60.1865 142.869 58.7345L140.67 60.6185L138.786 59.4799C139.141 56.9679 139.141 54.2999 139.141 51.4705V40.2025C139.141 38.7505 139.141 37.1399 138.749 32.1959H145.501ZM145.501 54.7279C145.501 55.8692 145.931 56.7705 147.187 56.7705C148.799 56.7705 149.937 55.1212 149.937 50.4505C149.937 47.1145 149.071 44.2479 147.109 44.2479C146.051 44.2479 145.501 44.9145 145.501 45.8572V54.7279Z" fill="white"/>
<path d="M162.126 31.9192C164.09 31.9192 165.661 33.4912 165.661 35.4539C165.661 37.4165 164.09 38.9859 162.126 38.9859C160.162 38.9859 158.593 37.4165 158.593 35.4539C158.593 33.4912 160.162 31.9192 162.126 31.9192ZM165.384 40.4405C165.306 42.4792 165.306 45.4632 165.306 49.7032C165.306 55.0419 165.306 57.7139 165.661 60.2245H158.593C158.946 57.7139 158.946 55.0419 158.946 52.2152V48.4472C158.946 45.6205 158.946 42.9525 158.593 40.4405H165.384Z" fill="white"/>
<path d="M176.22 34.4328C176.141 35.6501 176.1 37.9661 176.1 40.4408H179.047V44.2075H176.1V54.0995C176.1 55.7101 176.691 56.6128 178.261 56.6128C178.499 56.6128 178.733 56.6128 179.085 56.5741V60.1061C177.791 60.5381 176.456 60.6955 175.12 60.6955C173.356 60.6955 171.94 60.0688 170.881 58.8128C170.055 57.8301 169.743 56.1821 169.743 54.1795V44.2075H167.467V40.4408H169.743C169.743 37.9661 169.704 35.6501 169.624 34.4328H176.22Z" fill="white"/>
<path d="M182.904 40.2825C183.456 40.2039 185.576 39.9705 187.028 39.9705C195.153 39.9705 197.626 43.1479 197.626 48.4092V53.3172C197.626 55.2012 197.626 57.3225 198.646 60.2265H192.405C191.933 59.5972 191.777 59.1665 191.738 59.0092C190.678 59.7945 189.224 60.5385 187.34 60.5385C183.532 60.5385 181.06 57.9092 181.06 54.6132C181.06 50.9999 183.928 48.5652 187.654 47.3492L190.914 46.2865C190.873 44.9145 189.972 43.7385 188.126 43.7385C186.869 43.7385 184.908 44.3265 182.904 45.7772V40.2825ZM191.425 50.0185C188.948 50.6452 187.42 52.1785 187.42 54.1399C187.42 55.5159 188.282 56.5759 189.538 56.5759C190.362 56.5759 191.189 56.0639 191.425 55.7105V50.0185Z" fill="white"/>
<path d="M208.253 34.4328C208.175 35.6501 208.138 37.9661 208.138 40.4408H211.079V44.2075H208.138V54.0995C208.138 55.7101 208.725 56.6128 210.295 56.6128C210.531 56.6128 210.767 56.6128 211.118 56.5741V60.1061C209.823 60.5381 208.489 60.6955 207.155 60.6955C205.389 60.6955 203.974 60.0688 202.915 58.8128C202.09 57.8301 201.778 56.1821 201.778 54.1795V44.2075H199.499V40.4408H201.778C201.778 37.9661 201.737 35.6501 201.658 34.4328H208.253Z" fill="white"/>
<path d="M103.583 67.0461C103.498 66.9808 103.222 66.8328 102.755 66.8328C101.861 66.8328 101.435 67.5115 101.435 68.2368C101.435 68.6608 101.563 69.0888 101.65 69.3008H103.242V71.3408H101.629V75.6795C101.629 77.2115 101.629 78.6568 101.818 80.0168H97.9886C98.182 78.6568 98.182 77.2115 98.182 75.6795V71.3408H97.014V69.3008H98.182V68.4701C98.182 67.2141 98.3953 66.3648 99.3953 65.5355C100.245 64.8555 101.309 64.6221 102.243 64.6221C102.755 64.6221 103.307 64.7061 103.583 64.8128V67.0461Z" fill="white"/>
<path d="M113.394 74.6595C113.394 78.2741 111.014 80.2728 108.419 80.2728C105.823 80.2728 103.443 78.2741 103.443 74.6595C103.443 71.0448 105.823 69.0435 108.419 69.0435C111.014 69.0435 113.394 71.0448 113.394 74.6595ZM107.229 74.6595C107.229 77.2315 107.781 78.1475 108.419 78.1475C109.059 78.1475 109.611 77.2315 109.611 74.6595C109.611 72.0848 109.059 71.1715 108.419 71.1715C107.781 71.1715 107.229 72.0848 107.229 74.6595Z" fill="white"/>
<path d="M117.883 69.3013C118.01 69.6827 118.158 70.384 118.181 70.724C118.925 69.7267 119.819 69.0453 120.879 69.0453C121.117 69.0453 121.243 69.068 121.349 69.1093V71.9373C121.117 71.8733 120.818 71.8533 120.71 71.8533C119.093 71.8533 118.395 73.3413 118.395 75.68C118.395 77.212 118.395 78.656 118.585 80.0173H114.627C114.821 78.656 114.821 77.212 114.821 75.68V73.6387C114.821 72.1067 114.821 70.6627 114.461 69.3013H117.883Z" fill="white"/>
<path d="M132.684 64.8345C132.599 65.8772 132.576 67.0879 132.576 68.3865V70.8319C133.046 70.8519 133.512 70.8732 134.192 70.8732C134.875 70.8732 135.343 70.8519 135.808 70.8319V68.3865C135.808 67.0879 135.791 65.8772 135.703 64.8345H139.722C139.511 67.0252 139.511 68.8092 139.511 72.4252C139.511 76.0399 139.511 77.8292 139.722 80.0172H135.703C135.791 78.9759 135.808 77.7652 135.808 76.4679V73.3625C135.343 73.3412 134.875 73.3185 134.192 73.3185C133.512 73.3185 133.046 73.3412 132.576 73.3625V76.4679C132.576 77.7652 132.599 78.9759 132.684 80.0172H128.666C128.879 77.8292 128.879 76.0399 128.879 72.4252C128.879 68.8092 128.879 67.0252 128.666 64.8345H132.684Z" fill="white"/>
<path d="M147.484 80.0168C147.334 79.6995 147.229 79.3408 147.168 79.0608C146.377 79.8275 145.569 80.2715 144.465 80.2715C142.656 80.2715 141.468 78.9555 141.468 76.9115V73.6381C141.468 72.1075 141.468 70.6621 141.274 69.3008H144.909V76.4261C144.909 77.2741 145.25 77.7648 145.868 77.7648C146.401 77.7648 146.953 77.3821 146.953 76.6355V73.6381C146.953 72.1075 146.953 70.6621 146.762 69.3008H150.589C150.397 70.6621 150.397 72.1075 150.397 73.6381V75.6795C150.397 77.2115 150.397 78.6555 150.589 80.0168H147.484Z" fill="white"/>
<path d="M155.566 69.3013C155.716 69.62 155.82 69.98 155.886 70.256C156.673 69.5333 157.63 69.0453 158.693 69.0453C159.842 69.0453 160.562 69.7027 161.073 70.4053C161.841 69.7267 162.69 69.0453 164.072 69.0453C166.157 69.0453 166.945 70.5133 166.945 72.6173V75.68C166.945 77.212 166.945 78.656 167.134 80.0173H163.31C163.498 78.656 163.498 77.212 163.498 75.68V72.7227C163.498 71.9787 163.286 71.4267 162.629 71.4267C161.905 71.4267 161.5 71.9787 161.5 72.7227V75.68C161.5 77.212 161.5 78.656 161.692 80.0173H157.862C158.056 78.656 158.056 77.212 158.056 75.68V72.6827C158.056 71.9787 157.841 71.4267 157.184 71.4267C156.586 71.4267 156.056 71.916 156.056 72.5533V75.68C156.056 77.212 156.056 78.656 156.246 80.0173H152.42C152.612 78.656 152.612 77.212 152.612 75.68V73.6387C152.612 72.1067 152.612 70.6627 152.42 69.3013H155.566Z" fill="white"/>
<path d="M169.202 69.2141C169.501 69.1741 170.647 69.0435 171.437 69.0435C175.839 69.0435 177.178 70.7688 177.178 73.6181V76.2741C177.178 77.2968 177.178 78.4461 177.729 80.0181H174.349C174.095 79.6781 174.007 79.4448 173.99 79.3581C173.413 79.7835 172.625 80.1888 171.607 80.1888C169.543 80.1888 168.202 78.7621 168.202 76.9768C168.202 75.0208 169.755 73.7035 171.774 73.0421L173.541 72.4688C173.519 71.7248 173.027 71.0848 172.03 71.0848C171.35 71.0848 170.285 71.4048 169.202 72.1928V69.2141ZM173.815 74.4888C172.479 74.8301 171.647 75.6595 171.647 76.7235C171.647 77.4661 172.118 78.0421 172.797 78.0421C173.242 78.0421 173.69 77.7648 173.815 77.5728V74.4888Z" fill="white"/>
<path d="M181.81 69.3013C181.958 69.62 182.062 69.98 182.127 70.256C182.915 69.4933 183.723 69.0453 184.829 69.0453C186.637 69.0453 187.827 70.3613 187.827 72.404V75.68C187.827 77.212 187.827 78.656 188.019 80.0173H184.191C184.383 78.656 184.383 77.212 184.383 75.68V72.744C184.383 72.0867 184.106 71.5533 183.467 71.5533C182.939 71.5533 182.342 71.9373 182.342 72.5747V75.68C182.342 77.212 182.342 78.656 182.53 80.0173H178.707C178.894 78.656 178.894 77.212 178.894 75.68V73.6387C178.894 72.1067 178.894 70.6627 178.707 69.3013H181.81Z" fill="white"/>
<path d="M191.187 64.6841C192.251 64.6841 193.102 65.5348 193.102 66.5988C193.102 67.6614 192.251 68.5134 191.187 68.5134C190.127 68.5134 189.274 67.6614 189.274 66.5988C189.274 65.5348 190.127 64.6841 191.187 64.6841ZM192.953 69.3001C192.91 70.4068 192.91 72.0241 192.91 74.3188C192.91 77.2121 192.91 78.6574 193.102 80.0161H189.274C189.465 78.6574 189.465 77.2121 189.465 75.6788V73.6401C189.465 72.1068 189.465 70.6614 189.274 69.3001H192.953Z" fill="white"/>
<path d="M199.013 66.0455C198.969 66.7055 198.95 67.9601 198.95 69.3015H200.544V71.3415H198.95V76.7001C198.95 77.5721 199.268 78.0628 200.117 78.0628C200.248 78.0628 200.374 78.0628 200.565 78.0415V79.9535C199.865 80.1881 199.14 80.2721 198.417 80.2721C197.458 80.2721 196.694 79.9335 196.121 79.2548C195.673 78.7201 195.504 77.8281 195.504 76.7441V71.3415H194.269V69.3015H195.504C195.504 67.9601 195.484 66.7055 195.441 66.0455H199.013Z" fill="white"/>
<path d="M205.245 69.3013C205.521 70.96 206.327 73.9773 206.754 75.3613H206.794C207.393 73.1907 207.839 70.7467 208.031 69.3013H211.069C210.369 72.2147 208.773 78.128 207.414 80.912C206.711 82.336 205.647 84.0587 202.733 84.0587C202.439 84.0587 201.99 84.0373 201.717 83.952V81.2307C201.906 81.3373 202.374 81.548 202.906 81.548C204.011 81.548 204.754 80.6347 204.754 79.8467C204.754 79.444 204.671 79.1893 203.821 76.936C202.67 73.9147 201.798 70.724 201.566 69.3013H205.245Z" fill="white"/>
<path d="M9.99545 110.816H28.2475V115.126H21.6501V132.932H16.5648V115.126H9.99545V110.816Z" fill="white"/>
<path d="M30.8848 123.508H37.6328C37.4861 121.31 36.2355 119.972 34.3928 119.972C32.2541 119.972 31.1821 121.338 30.8848 123.508ZM26.2781 125.054C26.2781 120.298 29.5768 116.671 34.3928 116.671C36.6528 116.671 38.4381 117.415 39.8315 118.694C41.6168 120.418 42.4181 123.092 42.3888 126.214H30.8568C31.1528 128.592 32.4301 130.019 34.6901 130.019C36.1448 130.019 37.0675 129.454 37.5728 128.474H42.0928C41.2915 131.267 38.7021 133.408 34.6328 133.408C29.4581 133.408 26.2781 129.782 26.2781 125.054Z" fill="white"/>
<path d="M49.2175 119.942H49.3068C50.3188 117.743 51.7455 116.85 53.7055 116.85C54.1521 116.85 54.4815 116.879 54.6881 116.969V121.041H54.5668C54.2415 120.982 53.9161 120.953 53.5868 120.953C51.0628 120.923 49.3961 122.499 49.3961 125.59V132.931H44.7295V117.118H49.2175V119.942Z" fill="white"/>
<path d="M56.0163 117.118H60.7723L62.4389 123.271C62.9429 125.144 63.3616 128.176 63.3616 128.176H63.4189C63.4189 128.176 63.9269 125.115 64.4309 123.211L66.0363 117.118H69.9883L71.6549 123.211C72.1869 125.115 72.6949 128.206 72.6949 128.206H72.7523C72.7523 128.206 73.1709 125.174 73.7043 123.271L75.3989 117.118H80.0083L75.1016 132.931H70.7029L69.0376 126.48C68.5616 124.699 68.0576 121.635 68.0576 121.635H67.9963C67.9963 121.635 67.4323 124.667 66.9563 126.48L65.2323 132.931H60.8936L56.0163 117.118Z" fill="white"/>
<path d="M81.78 117.117H86.4467V132.931H81.78V117.117ZM81.748 110.816H86.4747V114.889H81.748V110.816Z" fill="white"/>
<path d="M89.5947 110.816H94.2893V132.932H89.5947V110.816Z" fill="white"/>
<path d="M97.4666 110.816H102.165V132.932H97.4666V110.816Z" fill="white"/>
<path d="M105.28 117.117H109.947V132.931H105.28V117.117ZM105.251 110.816H109.975V114.889H105.251V110.816Z" fill="white"/>
<path d="M123.766 124.312C123.766 121.962 122.607 120.209 120.319 120.209C118.266 120.209 116.988 121.814 116.988 124.34C116.988 126.838 118.266 128.445 120.347 128.445C122.726 128.445 123.766 126.66 123.766 124.312ZM112.766 133.497H117.315C117.611 134.449 118.506 135.102 120.319 135.102C122.518 135.102 123.616 133.973 123.616 132.04V131.713C123.616 130.912 123.648 130.168 123.706 129.633H123.587C122.664 131.177 121.27 131.95 119.307 131.95C115.652 131.95 112.408 129.245 112.408 124.46C112.408 119.852 115.176 116.672 119.067 116.672C121.21 116.672 122.726 117.385 123.616 119.138H123.676V117.117H128.136V131.536C128.136 133.884 127.363 135.578 126.083 136.706C124.718 137.896 122.696 138.432 120.376 138.432C116.038 138.432 113.242 136.618 112.766 133.497Z" fill="white"/>
<path d="M135.111 123.508H141.859C141.712 121.31 140.461 119.972 138.619 119.972C136.48 119.972 135.408 121.338 135.111 123.508ZM130.504 125.054C130.504 120.298 133.803 116.671 138.619 116.671C140.879 116.671 142.664 117.415 144.057 118.694C145.843 120.418 146.644 123.092 146.615 126.214H135.083C135.379 128.592 136.656 130.019 138.916 130.019C140.371 130.019 141.293 129.454 141.799 128.474H146.319C145.517 131.267 142.928 133.408 138.859 133.408C133.684 133.408 130.504 129.782 130.504 125.054Z" fill="white"/>
<path d="M153.443 119.942H153.533C154.545 117.743 155.971 116.85 157.931 116.85C158.378 116.85 158.707 116.879 158.914 116.969V121.041H158.793C158.467 120.982 158.142 120.953 157.813 120.953C155.289 120.923 153.622 122.499 153.622 125.59V132.931H148.955V117.118H153.443V119.942Z" fill="white"/>
<path d="M167.702 121.963C167.702 115.364 171.951 110.429 178.553 110.429C180.989 110.429 183.102 111.023 184.618 112.153C186.61 113.609 187.769 115.779 188.037 118.276H182.979C182.682 116.196 181.019 114.651 178.523 114.651C174.747 114.651 172.874 117.771 172.874 121.963C172.874 126.184 175.073 129.245 178.553 129.245C181.257 129.245 182.922 127.492 183.159 125.204H188.243C188.094 127.403 187.085 129.453 185.569 130.94C183.902 132.575 181.642 133.437 178.553 133.437C172.102 133.437 167.702 128.561 167.702 121.963Z" fill="white"/>
<path d="M194.711 123.508H201.459C201.312 121.31 200.062 119.972 198.219 119.972C196.08 119.972 195.008 121.338 194.711 123.508ZM190.104 125.054C190.104 120.298 193.403 116.671 198.219 116.671C200.479 116.671 202.263 117.415 203.659 118.694C205.443 120.418 206.243 123.092 206.215 126.214H194.683C194.979 128.592 196.255 130.019 198.516 130.019C199.971 130.019 200.895 129.454 201.399 128.474H205.918C205.118 131.267 202.528 133.408 198.459 133.408C193.284 133.408 190.104 129.782 190.104 125.054Z" fill="white"/>
<path d="M213.075 119.525H213.161C214.145 117.623 215.839 116.671 218.039 116.671C221.515 116.671 223.539 118.991 223.539 122.528V132.932H218.901V123.42C218.901 121.696 217.978 120.536 216.254 120.536C214.441 120.536 213.221 121.993 213.221 124.013V132.932H208.554V117.117H213.075V119.525Z" fill="white"/>
<path d="M225.281 117.118H227.66V112.063H232.237V117.118H235.327V120.09H232.237V127.938C232.237 129.127 232.892 129.454 233.989 129.454C234.291 129.454 234.765 129.423 235.063 129.395H235.299V132.872C234.795 132.963 233.843 133.111 232.595 133.111C229.652 133.111 227.66 132.159 227.66 128.948V120.09H225.281V117.118Z" fill="white"/>
<path d="M241.625 123.508H248.374C248.226 121.31 246.976 119.972 245.134 119.972C242.994 119.972 241.922 121.338 241.625 123.508ZM237.02 125.054C237.02 120.298 240.317 116.671 245.134 116.671C247.393 116.671 249.178 117.415 250.573 118.694C252.357 120.418 253.158 123.092 253.13 126.214H241.597C241.893 128.592 243.17 130.019 245.43 130.019C246.885 130.019 247.809 129.454 248.313 128.474H252.833C252.032 131.267 249.442 133.408 245.373 133.408C240.198 133.408 237.02 129.782 237.02 125.054Z" fill="white"/>
<path d="M259.958 119.942H260.046C261.056 117.743 262.484 116.85 264.445 116.85C264.893 116.85 265.218 116.879 265.426 116.969V121.041H265.308C264.982 120.982 264.653 120.953 264.328 120.953C261.8 120.923 260.137 122.499 260.137 125.59V132.931H255.47V117.118H259.958V119.942Z" fill="white"/>
<path d="M273.859 117.118H276.237V115.779C276.237 114.086 276.653 112.896 277.575 112.063C278.615 111.143 280.25 110.786 282.271 110.815C282.895 110.815 283.551 110.846 284.205 110.935V114.264C281.855 114.175 280.905 114.323 280.905 116.106V117.118H284.205V120.148H280.905V132.931H276.237V120.148H273.859V117.118Z" fill="white"/>
<path d="M297.487 125.054C297.487 122.051 296.179 120.001 293.86 120.001C291.483 120.001 290.232 122.051 290.232 125.054C290.232 128.027 291.483 130.047 293.86 130.047C296.179 130.047 297.487 128.027 297.487 125.054ZM285.508 125.054C285.508 120.298 288.838 116.671 293.89 116.671C298.914 116.671 302.212 120.298 302.212 125.054C302.212 129.782 298.914 133.438 293.89 133.438C288.838 133.438 285.508 129.782 285.508 125.054Z" fill="white"/>
<path d="M309.04 119.942H309.128C310.14 117.743 311.568 116.85 313.527 116.85C313.975 116.85 314.303 116.879 314.511 116.969V121.041H314.39C314.064 120.982 313.738 120.953 313.41 120.953C310.886 120.923 309.219 122.499 309.219 125.59V132.931H304.552V117.118H309.04V119.942Z" fill="white"/>
<path d="M11.0653 140.268H16.1493V162.385H11.0653V140.268Z" fill="white"/>
<path d="M24.1113 148.977H24.2007C25.1807 147.075 26.8753 146.123 29.0753 146.123C32.554 146.123 34.5753 148.443 34.5753 151.98V162.385H29.9367V152.872C29.9367 151.148 29.018 149.988 27.29 149.988C25.4767 149.988 24.2607 151.445 24.2607 153.467V162.385H19.594V146.568H24.1113V148.977Z" fill="white"/>
<path d="M42.0573 148.977H42.1466C43.1266 147.075 44.8213 146.123 47.0213 146.123C50.5013 146.123 52.5213 148.443 52.5213 151.98V162.385H47.8826V152.872C47.8826 151.148 46.964 149.988 45.236 149.988C43.4226 149.988 42.2066 151.445 42.2066 153.467V162.385H37.54V146.568H42.0573V148.977Z" fill="white"/>
<path d="M66.7194 154.506C66.7194 151.503 65.4114 149.452 63.0928 149.452C60.7154 149.452 59.4674 151.503 59.4674 154.506C59.4674 157.479 60.7154 159.5 63.0928 159.5C65.4114 159.5 66.7194 157.479 66.7194 154.506ZM54.7394 154.506C54.7394 149.75 58.0688 146.123 63.1221 146.123C68.1461 146.123 71.4474 149.75 71.4474 154.506C71.4474 159.234 68.1461 162.89 63.1221 162.89C58.0688 162.89 54.7394 159.234 54.7394 154.506Z" fill="white"/>
<path d="M71.7949 146.568H76.6083L78.5429 152.93C79.1976 155.042 79.7909 158.459 79.7909 158.459H79.8803C79.8803 158.459 80.4749 155.042 81.1283 152.93L83.1203 146.568H87.8163L82.2883 162.384H77.2629L71.7949 146.568Z" fill="white"/>
<path d="M98.5703 156.708V154.654C97.8876 155.07 96.8756 155.309 95.8343 155.546C93.7863 155.994 92.8023 156.498 92.8023 157.865C92.8023 159.234 93.8436 159.737 95.1236 159.737C97.2049 159.737 98.5703 158.43 98.5703 156.708ZM98.5103 160.452H98.4529C97.4116 161.908 96.1023 162.801 93.6676 162.801C90.5449 162.801 88.2569 161.136 88.2569 158.013C88.2569 154.506 91.0209 153.616 94.4689 153.198C97.2929 152.813 98.4529 152.365 98.4529 151.177C98.4529 150.049 97.7089 149.274 96.1023 149.274C94.3183 149.274 93.4569 150.108 93.3383 151.354H89.0289C89.1476 148.65 91.3476 146.124 96.0449 146.124C98.0663 146.124 99.4929 146.42 100.592 147.074C102.229 148.026 103.001 149.662 103.001 151.8V159.917C103.001 161.165 103.18 161.849 103.596 162.117V162.385H99.0463C98.8103 162.028 98.5983 161.344 98.5103 160.452Z" fill="white"/>
<path d="M105.073 146.568H107.452V141.516H112.029V146.568H115.118V149.542H112.029V157.39C112.029 158.579 112.684 158.907 113.781 158.907C114.081 158.907 114.557 158.875 114.853 158.847H115.09V162.324C114.585 162.415 113.634 162.563 112.386 162.563C109.442 162.563 107.452 161.611 107.452 158.4V149.542H105.073V146.568Z" fill="white"/>
<path d="M117.551 146.568H122.217V162.384H117.551V146.568ZM117.523 140.268H122.247V144.341H117.523V140.268Z" fill="white"/>
<path d="M136.541 154.506C136.541 151.503 135.232 149.452 132.914 149.452C130.537 149.452 129.289 151.503 129.289 154.506C129.289 157.479 130.537 159.5 132.914 159.5C135.232 159.5 136.541 157.479 136.541 154.506ZM124.561 154.506C124.561 149.75 127.89 146.123 132.944 146.123C137.968 146.123 141.268 149.75 141.268 154.506C141.268 159.234 137.968 162.89 132.944 162.89C127.89 162.89 124.561 159.234 124.561 154.506Z" fill="white"/>
<path d="M148.128 148.977H148.214C149.198 147.075 150.892 146.123 153.092 146.123C156.568 146.123 158.592 148.443 158.592 151.98V162.385H153.954V152.872C153.954 151.148 153.031 149.988 151.307 149.988C149.494 149.988 148.275 151.445 148.275 153.467V162.385H143.608V146.568H148.128V148.977Z" fill="white"/>
<path d="M168.713 146.568H173.381V162.384H168.713V146.568ZM168.683 140.268H173.411V144.341H168.683V140.268Z" fill="white"/>
<path d="M180.988 148.977H181.074C182.058 147.075 183.752 146.123 185.952 146.123C189.428 146.123 191.452 148.443 191.452 151.98V162.385H186.814V152.872C186.814 151.148 185.891 149.988 184.167 149.988C182.354 149.988 181.134 151.445 181.134 153.467V162.385H176.467V146.568H180.988V148.977Z" fill="white"/>
<path d="M200.772 155.398H205.883C206.151 157.807 207.728 158.875 210.581 158.875C212.541 158.875 214.387 158.103 214.387 156.291C214.387 154.358 212.513 153.942 209.301 153.199C204.992 152.216 201.484 151.147 201.484 146.539C201.484 141.963 205.229 139.88 210.107 139.88C214.98 139.88 218.428 142.14 218.756 146.482H213.791C213.524 144.756 212.156 143.746 209.956 143.746C207.875 143.746 206.48 144.638 206.48 146.035C206.48 147.759 208.383 148.146 211.859 148.919C215.843 149.811 219.497 151.118 219.497 155.784C219.497 160.363 215.635 162.919 210.581 162.919C204.667 162.919 200.919 160.184 200.772 155.398Z" fill="white"/>
<path d="M226.712 148.829H226.8C227.752 147.134 229.358 146.123 231.558 146.123C235.034 146.123 237.058 148.442 237.058 151.979V162.385H232.419V152.871C232.419 151.147 231.498 149.987 229.774 149.987C227.96 149.987 226.74 151.445 226.74 153.467V162.385H222.074V140.267H226.74V146.361C226.74 146.51 226.74 147.789 226.712 148.829Z" fill="white"/>
<path d="M243.885 152.961H250.635C250.483 150.763 249.236 149.423 247.393 149.423C245.251 149.423 244.183 150.791 243.885 152.961ZM239.276 154.505C239.276 149.749 242.577 146.123 247.393 146.123C249.649 146.123 251.435 146.868 252.833 148.145C254.615 149.869 255.417 152.545 255.389 155.665H243.853C244.149 158.045 245.431 159.472 247.691 159.472C249.145 159.472 250.069 158.907 250.573 157.925H255.089C254.289 160.719 251.703 162.86 247.631 162.86C242.459 162.86 239.276 159.233 239.276 154.505Z" fill="white"/>
<path d="M257.787 140.268H262.483V162.385H257.787V140.268Z" fill="white"/>
<path d="M264.678 146.568H267.057V141.516H271.634V146.568H274.724V149.542H271.634V157.39C271.634 158.579 272.289 158.907 273.386 158.907C273.688 158.907 274.162 158.875 274.46 158.847H274.696V162.324C274.192 162.415 273.24 162.563 271.992 162.563C269.049 162.563 267.057 161.611 267.057 158.4V149.542H264.678V146.568Z" fill="white"/>
<path d="M281.022 152.961H287.771C287.623 150.763 286.373 149.423 284.531 149.423C282.391 149.423 281.319 150.791 281.022 152.961ZM276.417 154.505C276.417 149.749 279.714 146.123 284.531 146.123C286.79 146.123 288.575 146.868 289.97 148.145C291.754 149.869 292.555 152.545 292.527 155.665H280.994C281.29 158.045 282.567 159.472 284.827 159.472C286.282 159.472 287.206 158.907 287.71 157.925H292.23C291.429 160.719 288.839 162.86 284.77 162.86C279.595 162.86 276.417 159.233 276.417 154.505Z" fill="white"/>
<path d="M299.355 149.394H299.443C300.453 147.195 301.881 146.303 303.842 146.303C304.29 146.303 304.615 146.333 304.823 146.421V150.494H304.705C304.379 150.434 304.05 150.405 303.725 150.405C301.197 150.374 299.534 151.951 299.534 155.042V162.385H294.867V146.569H299.355V149.394Z" fill="white"/>
</g>
</g>
<defs>
<clipPath id="clip0_3_3">
<rect width="315" height="180" fill="white"/>
</clipPath>
</defs>
</svg>
